<?xml version="1.0" encoding="utf-8"?>
<!-- Uploaded to: SVG Repo, www.svgrepo.com, Generator: SVG Repo Mixer Tools -->
<svg width="800px" height="800px" viewBox="0 0 1024 1024" fill="#000000" class="icon"  version="1.1" xmlns="http://www.w3.org/2000/svg"><path d="M931.379272 808.07173s80.696554-8.019877 81.802744-44.911311-92.14562-54.092687-114.04818-63.384682c-21.847251-9.236686-27.654748-13.772064-27.654748-13.772064s1.10619-13.827374-5.752187-23.06406c-7.024306-9.236686-5.752188-35.729934-5.752188-35.729934s8.075186-2.378308 32.190127-14.988873c24.225559-12.665874 48.395809-23.06406 49.612617-49.557308 1.10619-26.493248-39.214432-52.986497-87.610241-66.813871s-102.543805-25.387058-102.543805-25.387058-16.150373-12.610565-13.827373-24.17025c2.322999-11.504375 4.590688-21.90256 4.590688-21.90256s82.908934-26.493248 84.125742-81.913363c1.161499-55.198877-54.203306-65.652371-112.997299-85.121313-58.793994-19.634871-81.802744-33.517554-110.618991-54.203306-28.760938-20.685751-47.234309-41.482122-47.234309-41.482122s4.645998-23.119369-1.1615-36.836124c-5.696878-13.882683-19.579561-20.85168-19.579561-20.851679l-1.10619-18.307443s9.236686-3.373879 5.752188-9.236686c-0.387166-0.553095-0.608404-1.10619-0.829643-1.659285A41.150265 41.150265 0 0 0 515.285937 0a41.094955 41.094955 0 0 0-28.926866 70.243059c-1.161499 2.654856-1.659285 5.918116 1.438047 8.407044 5.641569 4.701307 5.641569 24.225559 5.641568 24.225559s-21.791941 8.185805-22.898131 28.871556c-1.216809 20.741061 1.10619 29.977747 1.10619 29.977747S415.120441 230.861834 343.715882 256.138274c-71.459868 25.387058-121.017176 31.194555-137.05693 70.298369-16.205682 39.159123 18.362753 63.495301 33.351626 72.676677 15.044183 9.181376 44.91131 28.816247 44.91131 28.816247l-2.322999 33.462245s-12.610565 9.126067-24.170249 13.716754c-11.504375 4.590688-118.694177 26.493248-153.262612 55.309496-34.513125 28.871557-18.307443 56.194447 1.161499 69.136869 19.524252 12.997731 64.490872 33.462245 66.86918 38.052933 2.267689 4.701307-2.378308 39.159123-2.378308 39.159123s-63.274063 24.17025-101.326996 38.052933c-37.997623 13.827374-58.738684 24.17025-58.738684 50.552879 0 26.603867 40.320622 36.946743 55.309496 40.486551 14.988873 3.429189 27.654748 3.429189 27.654747 3.429188v136.669764H21.814618v78.041698h987.82759v-78.041698h-78.318246l0.05531-137.886572z m-357.40996-438.438371c73.229772 7.798639 122.289295 29.64589 143.528141 40.929026v35.564006c-21.90256-8.075186-72.621368-24.280869-143.528141-31.083937v-45.409095zM488.847998 42.975478a16.758777 16.758777 0 1 1 33.517555 0.110619 16.758777 16.758777 0 0 1-33.517555-0.110619zM302.786855 417.144215c22.068489-13.661445 78.594793-42.035217 172.289079-49.004213v44.579454c-79.424436 5.53095-147.233877 30.309604-172.289079 40.54186v-36.117101zM193.605911 617.25397c29.64589-15.210111 146.404235-66.482014 360.894458-62.665658 155.530301 2.820784 254.644917 46.459976 285.618235 62.333801v47.953333c-35.398077-16.095063-160.12099-66.260776-336.337042-65.320515-146.90202 0.940261-277.764286 49.557308-310.23096 62.444421v-44.745382z m-65.154586 186.116452s143.915307-91.537215 395.407584-86.946527c228.483526 4.203522 379.257211 86.946527 379.257211 86.946527v141.702928h-252.875014v-134.623312h-56.470995v134.623312h-30.586151v-134.623312H481.436526v134.623312h-30.586151v-134.623312h-56.415686v134.623312h-268.251053l2.267689-141.702928z" /></svg>