<?xml version="1.0" encoding="iso-8859-1"?>
<!-- Uploaded to: SVG Repo, www.svgrepo.com, Generator: SVG Repo Mixer Tools -->
<svg height="800px" width="800px" version="1.1" id="Layer_1" xmlns="http://www.w3.org/2000/svg" xmlns:xlink="http://www.w3.org/1999/xlink" 
	 viewBox="0 0 503.467 503.467" xml:space="preserve">
<g transform="translate(1 1)">
	<path style="fill:#80D6FA;" d="M412.867,79.96c0,23.893-18.773,42.667-42.667,42.667c-23.893,0-42.667-18.773-42.667-42.667
		c0-42.667,42.667-76.8,42.667-76.8S412.867,37.293,412.867,79.96z M327.533,199.427c0,42.667-34.133,76.8-76.8,76.8
		s-76.8-34.133-76.8-76.8c0-59.733,76.8-128,76.8-128S327.533,139.693,327.533,199.427z M173.933,79.96
		c0,23.893-18.773,42.667-42.667,42.667S88.6,103.853,88.6,79.96c0-42.667,42.667-76.8,42.667-76.8S173.933,37.293,173.933,79.96z"
		/>
	<path style="fill:#AAB1BA;" d="M447,463.96v34.133H310.467V463.96h17.067H395.8H447z M191,463.96v34.133H54.467V463.96h51.2h68.267
		H191z"/>
	<path style="fill:#FFD0A1;" d="M447,300.12V182.36c0-14.507,11.093-25.6,25.6-25.6c14.507,0,25.6,11.093,25.6,25.6v128
		c0,28.16-17.067,42.667-17.067,42.667l-68.267,68.267c0,0-17.067,17.067-17.067,42.667h-68.267v-76.8
		c0-28.16,17.067-42.667,17.067-42.667l59.733-59.733c10.24-10.24,24.747-11.093,34.987-0.853
		C444.44,288.173,446.147,294.147,447,300.12L447,300.12z M55.32,300.12c0-5.973,2.56-11.947,6.827-17.067
		c10.24-10.24,25.6-8.533,34.987,0.853l59.733,59.733c0,0,17.067,14.507,17.067,42.667v76.8h-68.267
		c0-25.6-17.067-42.667-17.067-42.667l-68.267-68.267c0,0-17.067-14.507-17.067-42.667v-128c0-14.507,11.093-25.6,25.6-25.6
		s25.6,11.093,25.6,25.6L55.32,300.12L55.32,300.12z"/>
</g>
<path style="fill:#51565F;" d="M448,503.36c-2.56,0-4.267-1.707-4.267-4.267v-29.867h-128v29.867c0,2.56-1.707,4.267-4.267,4.267
	s-4.267-1.707-4.267-4.267V464.96c0-2.56,1.707-4.267,4.267-4.267H448c2.56,0,4.267,1.707,4.267,4.267v34.133
	C452.267,501.653,450.56,503.36,448,503.36z M192,503.36c-2.56,0-4.267-1.707-4.267-4.267v-29.867h-128v29.867
	c0,2.56-1.707,4.267-4.267,4.267c-2.56,0-4.267-1.707-4.267-4.267V464.96c0-2.56,1.707-4.267,4.267-4.267H192
	c2.56,0,4.267,1.707,4.267,4.267v34.133C196.267,501.653,194.56,503.36,192,503.36z M328.533,435.093
	c-2.56,0-4.267-1.707-4.267-4.267V388.16c0-29.867,17.92-45.227,18.773-46.08l59.733-59.733c5.973-5.973,12.8-8.533,20.48-9.387
	c7.68,0,15.36,2.56,20.48,8.533c5.973,5.973,8.533,12.8,8.533,20.48c0,7.68-3.413,14.507-9.387,20.48l-42.667,42.667
	c-1.707,1.707-4.267,1.707-5.973,0c-1.707-1.707-1.707-4.267,0-5.973l42.667-42.667c4.267-4.267,6.827-9.387,6.827-14.507
	s-1.707-10.24-5.973-14.507s-9.387-5.973-14.507-5.973c-5.12,0-10.24,2.56-14.507,6.827l-59.733,59.733
	c0,0-16.213,14.507-16.213,39.253v42.667C332.8,433.387,331.093,435.093,328.533,435.093z M174.933,435.093
	c-2.56,0-4.267-1.707-4.267-4.267V388.16c0-25.6-15.36-39.253-15.36-39.253l-59.733-59.733c-4.267-4.267-9.387-6.827-14.507-6.827
	c-5.12,0-10.24,1.707-14.507,5.973s-5.973,9.387-5.973,14.507s2.56,10.24,6.827,14.507L110.08,360c1.707,1.707,1.707,4.267,0,5.973
	c-1.707,1.707-4.267,1.707-5.973,0L61.44,323.307c-5.973-5.973-8.533-12.8-9.387-20.48c0-7.68,2.56-15.36,8.533-20.48
	c5.973-5.973,12.8-8.533,20.48-8.533s14.507,3.413,20.48,9.387l59.733,59.733c0.853,0.853,17.92,16.213,17.92,46.08v42.667
	C179.2,433.387,177.493,435.093,174.933,435.093z M413.867,426.56c-0.853,0-2.56,0-3.413-0.853c-1.707-1.707-1.707-4.267,0-5.973
	l68.267-68.267c0.853-0.853,16.213-13.653,16.213-39.253v-128c0-11.947-9.387-21.333-21.333-21.333
	c-11.947,0-21.333,9.387-21.333,21.333v67.413c0,2.56-1.707,4.267-4.267,4.267s-4.267-1.707-4.267-4.267V183.36
	c0-16.213,13.653-29.867,29.867-29.867c16.213,0,29.867,13.653,29.867,29.867v128c0,29.867-17.92,45.227-18.773,46.08
	l-68.267,68.267C416.427,426.56,414.72,426.56,413.867,426.56z M89.6,426.56c-0.853,0-2.56,0-3.413-0.853L17.92,357.44
	C17.067,357.44,0,342.08,0,311.36v-128c0-16.213,13.653-29.867,29.867-29.867s29.867,13.653,29.867,29.867v67.413
	c0,2.56-1.707,4.267-4.267,4.267c-2.56,0-4.267-1.707-4.267-4.267V183.36c0-11.947-9.387-21.333-21.333-21.333
	S8.533,171.413,8.533,183.36v128c0,25.6,15.36,39.253,15.36,39.253L92.16,418.88c1.707,1.707,1.707,4.267,0,5.973
	C92.16,426.56,90.453,426.56,89.6,426.56z M251.733,281.493c-44.373,0-81.067-36.693-81.067-81.067
	c0-60.587,75.093-128,78.507-131.413c1.707-1.707,4.267-1.707,5.973,0c3.413,2.56,78.507,69.973,78.507,131.413
	C332.8,244.8,296.107,281.493,251.733,281.493z M251.733,78.4C238.08,91.2,179.2,150.08,179.2,200.427
	c0,40.107,32.427,72.533,72.533,72.533s72.533-32.427,72.533-72.533C324.267,150.08,265.387,91.2,251.733,78.4z M285.867,230.293
	c-0.853,0-1.707,0-2.56-0.853c-1.707-1.707-2.56-4.267-0.853-5.973c5.12-6.827,7.68-14.507,7.68-23.04
	c0-2.56,1.707-4.267,4.267-4.267s4.267,1.707,4.267,4.267c0,10.24-3.413,20.48-9.387,28.16
	C288.427,230.293,286.72,230.293,285.867,230.293z M371.2,127.893c-25.6,0-46.933-21.333-46.933-46.933
	c0-44.373,42.667-78.507,44.373-80.213c1.707-0.853,3.413-0.853,5.12,0c1.707,1.707,44.373,35.84,44.373,80.213
	C418.133,106.56,396.8,127.893,371.2,127.893z M371.2,10.133c-9.387,8.533-38.4,37.547-38.4,70.827c0,21.333,17.067,38.4,38.4,38.4
	c21.333,0,38.4-17.067,38.4-38.4C409.6,46.827,380.587,17.813,371.2,10.133z M132.267,127.893c-25.6,0-46.933-21.333-46.933-46.933
	c0-44.373,42.667-78.507,44.373-80.213c1.707-0.853,3.413-0.853,5.12,0c1.707,1.707,44.373,35.84,44.373,80.213
	C179.2,106.56,157.867,127.893,132.267,127.893z M132.267,10.133c-9.387,8.533-38.4,37.547-38.4,70.827
	c0,21.333,17.067,38.4,38.4,38.4s38.4-17.067,38.4-38.4C170.667,46.827,141.653,17.813,132.267,10.133z M371.2,93.76
	c-1.707,0-3.413-1.707-4.267-3.413c-0.853-2.56,0.853-4.267,3.413-5.12c1.707,0,5.12-3.413,5.12-5.12
	c0.853-2.56,2.56-3.413,5.12-3.413c2.56,0.853,3.413,2.56,3.413,5.12c-0.853,5.12-6.827,11.093-11.947,11.947H371.2z M132.267,93.76
	c-1.707,0-3.413-1.707-4.267-3.413c-0.853-2.56,0.853-4.267,3.413-5.12c1.707,0,5.12-3.413,5.12-5.12
	c0.853-2.56,2.56-3.413,5.12-3.413c2.56,0.853,3.413,2.56,3.413,5.12c-0.853,5.12-6.827,11.093-11.947,11.947H132.267z"/>
</svg>